<svg width="137" height="54" viewBox="0 0 137 54" fill="none" xmlns="http://www.w3.org/2000/svg">
<path d="M78.1725 23.2587C79.4214 23.2587 80.5968 23.5036 81.6987 23.9934C82.8006 24.4586 83.7557 25.0953 84.5638 25.9034C85.3718 26.7115 86.0085 27.6665 86.4738 28.7685C86.9635 29.8704 87.2084 31.0458 87.2084 32.2947C87.2084 33.5435 86.9635 34.7189 86.4738 35.8209C86.0085 36.9228 85.3718 37.8778 84.5638 38.6859C83.7557 39.494 82.8006 40.1429 81.6987 40.6327C80.5968 41.098 79.4214 41.3306 78.1725 41.3306C76.9236 41.3306 75.7482 41.098 74.6463 40.6327C73.5443 40.1429 72.5893 39.494 71.7812 38.6859C70.9731 37.8778 70.3242 36.9228 69.8345 35.8209C69.3692 34.7189 69.1366 33.5435 69.1366 32.2947C69.1366 31.0458 69.3692 29.8704 69.8345 28.7685C70.3242 27.6665 70.9731 26.7115 71.7812 25.9034C72.5893 25.0953 73.5443 24.4586 74.6463 23.9934C75.7482 23.5036 76.9236 23.2587 78.1725 23.2587ZM78.1725 35.3066C79.0051 35.3066 79.7152 35.0128 80.3029 34.4251C80.8906 33.8374 81.1845 33.1272 81.1845 32.2947C81.1845 31.4621 80.8906 30.7519 80.3029 30.1642C79.7152 29.5765 79.0051 29.2827 78.1725 29.2827C77.3399 29.2827 76.6298 29.5765 76.0421 30.1642C75.4544 30.7519 75.1605 31.4621 75.1605 32.2947C75.1605 33.1272 75.4544 33.8374 76.0421 34.4251C76.6298 35.0128 77.3399 35.3066 78.1725 35.3066ZM91.4179 32.2947C91.4179 31.0458 91.6505 29.8826 92.1158 28.8052C92.6055 27.7032 93.2545 26.7482 94.0625 25.9401C94.8706 25.1076 95.8256 24.4586 96.9276 23.9934C98.0295 23.5036 99.2049 23.2587 100.454 23.2587V29.2827C99.6212 29.2827 98.9111 29.5765 98.3234 30.1642C97.7357 30.7519 97.4418 31.4621 97.4418 32.2947V41H91.4179V32.2947ZM104.875 41V23.5893H110.899V41H104.875ZM110.017 22.0466C109.43 22.6343 108.72 22.9282 107.887 22.9282C107.054 22.9282 106.344 22.6343 105.757 22.0466C105.169 21.4589 104.875 20.7488 104.875 19.9162C104.875 19.0836 105.169 18.3735 105.757 17.7858C106.344 17.1981 107.054 16.9042 107.887 16.9042C108.72 16.9042 109.43 17.1981 110.017 17.7858C110.605 18.3735 110.899 19.0836 110.899 19.9162C110.899 20.7488 110.605 21.4589 110.017 22.0466ZM115.84 32.2947C115.84 31.0458 116.073 29.8826 116.538 28.8052C117.028 27.7032 117.677 26.7482 118.485 25.9401C119.293 25.1076 120.248 24.4586 121.35 23.9934C122.452 23.5036 123.627 23.2587 124.876 23.2587V29.2827C124.043 29.2827 123.333 29.5765 122.745 30.1642C122.158 30.7519 121.864 31.4621 121.864 32.2947V41H115.84V32.2947ZM129.297 41V23.5893H135.321V41H129.297ZM134.44 22.0466C133.852 22.6343 133.142 22.9282 132.309 22.9282C131.477 22.9282 130.766 22.6343 130.179 22.0466C129.591 21.4589 129.297 20.7488 129.297 19.9162C129.297 19.0836 129.591 18.3735 130.179 17.7858C130.766 17.1981 131.477 16.9042 132.309 16.9042C133.142 16.9042 133.852 17.1981 134.44 17.7858C135.027 18.3735 135.321 19.0836 135.321 19.9162C135.321 20.7488 135.027 21.4589 134.44 22.0466Z" fill="white"/>
<path d="M48.0237 47.8468C48.1343 48.0391 48.2521 48.2098 48.3771 48.3588C48.5069 48.5031 48.6488 48.6161 48.8026 48.6978C48.9565 48.7748 49.1296 48.8132 49.3219 48.8132C49.5527 48.8132 49.7402 48.7507 49.8845 48.6257C50.0287 48.5007 50.1009 48.3396 50.1009 48.1425C50.1009 47.955 50.0552 47.8059 49.9638 47.6953C49.8725 47.5799 49.7451 47.4838 49.5816 47.4068C49.4229 47.3251 49.2378 47.2458 49.0262 47.1688C48.9012 47.1255 48.7618 47.0678 48.6079 46.9957C48.4541 46.9188 48.3074 46.825 48.168 46.7144C48.0285 46.599 47.9131 46.4596 47.8218 46.2961C47.7304 46.1278 47.6847 45.9259 47.6847 45.6903C47.6847 45.421 47.7545 45.1854 47.8939 44.9835C48.0333 44.7767 48.2209 44.6181 48.4565 44.5075C48.6969 44.3921 48.9685 44.3344 49.2714 44.3344C49.5696 44.3344 49.8292 44.3873 50.0504 44.4931C50.2716 44.5988 50.4567 44.7335 50.6057 44.8969C50.7596 45.0604 50.8798 45.2311 50.9663 45.409L50.274 45.7985C50.2115 45.6735 50.1321 45.5581 50.036 45.4523C49.9398 45.3417 49.8268 45.2552 49.697 45.1926C49.572 45.1253 49.4253 45.0917 49.257 45.0917C49.0214 45.0917 48.8483 45.147 48.7377 45.2576C48.6271 45.3633 48.5719 45.4884 48.5719 45.6326C48.5719 45.7624 48.6103 45.8802 48.6873 45.986C48.769 46.087 48.894 46.1831 49.0623 46.2745C49.2306 46.3659 49.4494 46.4596 49.7186 46.5558C49.8677 46.6087 50.0167 46.676 50.1658 46.7577C50.3196 46.8395 50.4591 46.9428 50.5841 47.0678C50.7091 47.1881 50.8077 47.3299 50.8798 47.4934C50.9567 47.6569 50.9952 47.8492 50.9952 48.0704C50.9952 48.306 50.9495 48.5175 50.8582 48.705C50.7668 48.8926 50.6418 49.0512 50.4831 49.1811C50.3244 49.3061 50.1441 49.4022 49.9422 49.4695C49.7451 49.5417 49.5383 49.5777 49.3219 49.5777C49.0238 49.5777 48.7474 49.52 48.4925 49.4046C48.2425 49.2844 48.0237 49.1258 47.8362 48.9286C47.6487 48.7315 47.4996 48.5175 47.389 48.2867L48.0237 47.8468ZM52.9865 46.9452C52.9865 47.2914 53.0586 47.6016 53.2029 47.8756C53.3519 48.1449 53.5563 48.3564 53.8159 48.5103C54.0756 48.6642 54.3713 48.7411 54.703 48.7411C55.0396 48.7411 55.3353 48.6642 55.5902 48.5103C55.8498 48.3564 56.0517 48.1449 56.196 47.8756C56.345 47.6016 56.4196 47.2914 56.4196 46.9452C56.4196 46.599 56.3474 46.2913 56.2032 46.0221C56.059 45.748 55.857 45.534 55.5974 45.3802C55.3425 45.2263 55.0444 45.1494 54.703 45.1494C54.3713 45.1494 54.0756 45.2263 53.8159 45.3802C53.5563 45.534 53.3519 45.748 53.2029 46.0221C53.0586 46.2913 52.9865 46.599 52.9865 46.9452ZM52.085 46.9452C52.085 46.5654 52.1499 46.2168 52.2797 45.8995C52.4095 45.5821 52.5922 45.308 52.8278 45.0773C53.0683 44.8417 53.3471 44.6589 53.6645 44.5291C53.9866 44.3993 54.3328 44.3344 54.703 44.3344C55.0829 44.3344 55.4315 44.3993 55.7488 44.5291C56.0662 44.6589 56.3426 44.8417 56.5782 45.0773C56.8186 45.308 57.0038 45.5821 57.1336 45.8995C57.2634 46.2168 57.3283 46.5654 57.3283 46.9452C57.3283 47.3203 57.2634 47.6689 57.1336 47.991C57.0038 48.3132 56.8211 48.592 56.5855 48.8276C56.3499 49.0633 56.071 49.2484 55.7488 49.383C55.4315 49.5128 55.0829 49.5777 54.703 49.5777C54.328 49.5777 53.9794 49.5128 53.6573 49.383C53.3351 49.2484 53.0562 49.0633 52.8206 48.8276C52.5898 48.592 52.4095 48.3132 52.2797 47.991C52.1499 47.6689 52.085 47.3203 52.085 46.9452ZM59.1873 45.1854V44.4209H61.4448V45.1854H59.1873ZM59.1873 47.1905V46.4476H61.3727V47.1905H59.1873ZM58.6608 44.4209H59.4975V49.4695H58.6608V44.4209ZM62.2036 45.2071V44.4209H65.7232V45.2071H64.3889V49.4695H63.5307V45.2071H62.2036ZM71.6314 47.8035L72.8142 44.4209H73.8023L71.7396 49.7364L70.1817 46.1663L68.6239 49.7364L66.5611 44.4209H67.5492L68.7465 47.8035L70.1817 44.1685L71.6314 47.8035ZM74.8114 48.1713L74.9701 47.4501H77.3141L77.48 48.1713H74.8114ZM76.1313 45.849L75.3379 47.7025L75.3235 47.89L74.6239 49.4695H73.6647L76.1313 44.1397L78.5979 49.4695H77.6387L76.9535 47.9333L76.9319 47.7242L76.1313 45.849ZM80.7286 47.0606H81.6518L83.3611 49.4695H82.337L80.7286 47.0606ZM79.6901 44.4209H80.5411V49.4695H79.6901V44.4209ZM80.1949 45.1566V44.4209H81.2479C81.6133 44.4209 81.9307 44.4858 82.1999 44.6157C82.474 44.7455 82.6856 44.9282 82.8346 45.1638C82.9837 45.3946 83.0582 45.6687 83.0582 45.986C83.0582 46.3033 82.9837 46.5798 82.8346 46.8154C82.6856 47.051 82.474 47.2337 82.1999 47.3636C81.9307 47.4934 81.6133 47.5583 81.2479 47.5583H80.1949V46.8587H81.2118C81.4042 46.8587 81.5725 46.825 81.7167 46.7577C81.8658 46.6904 81.9812 46.5942 82.0629 46.4692C82.1446 46.3394 82.1855 46.1855 82.1855 46.0076C82.1855 45.8249 82.1446 45.6711 82.0629 45.5461C81.9812 45.421 81.8658 45.3249 81.7167 45.2576C81.5725 45.1902 81.4042 45.1566 81.2118 45.1566H80.1949ZM85.0108 49.4695V48.7195H87.5567V49.4695H85.0108ZM85.0108 45.171V44.4209H87.5567V45.171H85.0108ZM85.0108 47.1328V46.3971H87.4125V47.1328H85.0108ZM84.4843 44.4209H85.3209V49.4695H84.4843V44.4209ZM92.1083 47.8468C92.2189 48.0391 92.3367 48.2098 92.4617 48.3588C92.5916 48.5031 92.7334 48.6161 92.8873 48.6978C93.0411 48.7748 93.2142 48.8132 93.4066 48.8132C93.6373 48.8132 93.8249 48.7507 93.9691 48.6257C94.1134 48.5007 94.1855 48.3396 94.1855 48.1425C94.1855 47.955 94.1398 47.8059 94.0484 47.6953C93.9571 47.5799 93.8297 47.4838 93.6662 47.4068C93.5075 47.3251 93.3224 47.2458 93.1108 47.1688C92.9858 47.1255 92.8464 47.0678 92.6925 46.9957C92.5387 46.9188 92.392 46.825 92.2526 46.7144C92.1131 46.599 91.9977 46.4596 91.9064 46.2961C91.815 46.1278 91.7694 45.9259 91.7694 45.6903C91.7694 45.421 91.8391 45.1854 91.9785 44.9835C92.118 44.7767 92.3055 44.6181 92.5411 44.5075C92.7815 44.3921 93.0531 44.3344 93.3561 44.3344C93.6542 44.3344 93.9138 44.3873 94.135 44.4931C94.3562 44.5988 94.5413 44.7335 94.6903 44.8969C94.8442 45.0604 94.9644 45.2311 95.051 45.409L94.3586 45.7985C94.2961 45.6735 94.2167 45.5581 94.1206 45.4523C94.0244 45.3417 93.9114 45.2552 93.7816 45.1926C93.6566 45.1253 93.5099 45.0917 93.3416 45.0917C93.106 45.0917 92.9329 45.147 92.8224 45.2576C92.7118 45.3633 92.6565 45.4884 92.6565 45.6326C92.6565 45.7624 92.6949 45.8802 92.7719 45.986C92.8536 46.087 92.9786 46.1831 93.1469 46.2745C93.3152 46.3659 93.534 46.4596 93.8032 46.5558C93.9523 46.6087 94.1013 46.676 94.2504 46.7577C94.4043 46.8395 94.5437 46.9428 94.6687 47.0678C94.7937 47.1881 94.8923 47.3299 94.9644 47.4934C95.0413 47.6569 95.0798 47.8492 95.0798 48.0704C95.0798 48.306 95.0341 48.5175 94.9428 48.705C94.8514 48.8926 94.7264 49.0512 94.5677 49.1811C94.4091 49.3061 94.2288 49.4022 94.0268 49.4695C93.8297 49.5417 93.6229 49.5777 93.4066 49.5777C93.1084 49.5777 92.832 49.52 92.5771 49.4046C92.3271 49.2844 92.1083 49.1258 91.9208 48.9286C91.7333 48.7315 91.5842 48.5175 91.4737 48.2867L92.1083 47.8468ZM97.0711 46.9452C97.0711 47.2914 97.1433 47.6016 97.2875 47.8756C97.4366 48.1449 97.6409 48.3564 97.9005 48.5103C98.1602 48.6642 98.4559 48.7411 98.7877 48.7411C99.1242 48.7411 99.4199 48.6642 99.6748 48.5103C99.9344 48.3564 100.136 48.1449 100.281 47.8756C100.43 47.6016 100.504 47.2914 100.504 46.9452C100.504 46.599 100.432 46.2913 100.288 46.0221C100.144 45.748 99.9416 45.534 99.682 45.3802C99.4271 45.2263 99.129 45.1494 98.7877 45.1494C98.4559 45.1494 98.1602 45.2263 97.9005 45.3802C97.6409 45.534 97.4366 45.748 97.2875 46.0221C97.1433 46.2913 97.0711 46.599 97.0711 46.9452ZM96.1696 46.9452C96.1696 46.5654 96.2345 46.2168 96.3643 45.8995C96.4941 45.5821 96.6769 45.308 96.9125 45.0773C97.1529 44.8417 97.4317 44.6589 97.7491 44.5291C98.0712 44.3993 98.4174 44.3344 98.7877 44.3344C99.1675 44.3344 99.5161 44.3993 99.8334 44.5291C100.151 44.6589 100.427 44.8417 100.663 45.0773C100.903 45.308 101.088 45.5821 101.218 45.8995C101.348 46.2168 101.413 46.5654 101.413 46.9452C101.413 47.3203 101.348 47.6689 101.218 47.991C101.088 48.3132 100.906 48.592 100.67 48.8276C100.434 49.0633 100.156 49.2484 99.8334 49.383C99.5161 49.5128 99.1675 49.5777 98.7877 49.5777C98.4126 49.5777 98.064 49.5128 97.7419 49.383C97.4197 49.2484 97.1409 49.0633 96.9052 48.8276C96.6745 48.592 96.4941 48.3132 96.3643 47.991C96.2345 47.6689 96.1696 47.3203 96.1696 46.9452ZM102.745 44.4209H103.597V48.705H105.602V49.4695H102.745V44.4209ZM106.687 44.4209H107.538V47.7747C107.538 48.0872 107.619 48.3396 107.783 48.5319C107.951 48.7195 108.199 48.8132 108.526 48.8132C108.848 48.8132 109.093 48.7195 109.261 48.5319C109.43 48.3396 109.514 48.0872 109.514 47.7747V44.4209H110.365V47.8107C110.365 48.0896 110.319 48.3396 110.228 48.5608C110.141 48.7772 110.016 48.9623 109.853 49.1161C109.689 49.27 109.495 49.3878 109.269 49.4695C109.043 49.5513 108.795 49.5922 108.526 49.5922C108.256 49.5922 108.009 49.5513 107.783 49.4695C107.557 49.3878 107.36 49.27 107.191 49.1161C107.028 48.9623 106.903 48.7772 106.816 48.5608C106.73 48.3396 106.687 48.0896 106.687 47.8107V44.4209ZM111.456 45.2071V44.4209H114.975V45.2071H113.641V49.4695H112.783V45.2071H111.456ZM116.1 44.4209H116.958V49.4695H116.1V44.4209ZM119.204 46.9452C119.204 47.2914 119.276 47.6016 119.42 47.8756C119.569 48.1449 119.774 48.3564 120.033 48.5103C120.293 48.6642 120.589 48.7411 120.92 48.7411C121.257 48.7411 121.553 48.6642 121.808 48.5103C122.067 48.3564 122.269 48.1449 122.413 47.8756C122.562 47.6016 122.637 47.2914 122.637 46.9452C122.637 46.599 122.565 46.2913 122.421 46.0221C122.276 45.748 122.074 45.534 121.815 45.3802C121.56 45.2263 121.262 45.1494 120.92 45.1494C120.589 45.1494 120.293 45.2263 120.033 45.3802C119.774 45.534 119.569 45.748 119.42 46.0221C119.276 46.2913 119.204 46.599 119.204 46.9452ZM118.302 46.9452C118.302 46.5654 118.367 46.2168 118.497 45.8995C118.627 45.5821 118.81 45.308 119.045 45.0773C119.286 44.8417 119.564 44.6589 119.882 44.5291C120.204 44.3993 120.55 44.3344 120.92 44.3344C121.3 44.3344 121.649 44.3993 121.966 44.5291C122.284 44.6589 122.56 44.8417 122.796 45.0773C123.036 45.308 123.221 45.5821 123.351 45.8995C123.481 46.2168 123.546 46.5654 123.546 46.9452C123.546 47.3203 123.481 47.6689 123.351 47.991C123.221 48.3132 123.038 48.592 122.803 48.8276C122.567 49.0633 122.288 49.2484 121.966 49.383C121.649 49.5128 121.3 49.5777 120.92 49.5777C120.545 49.5777 120.197 49.5128 119.875 49.383C119.552 49.2484 119.274 49.0633 119.038 48.8276C118.807 48.592 118.627 48.3132 118.497 47.991C118.367 47.6689 118.302 47.3203 118.302 46.9452ZM128.564 44.4209H129.4V49.722L125.715 46.0798V49.4695H124.878V44.1685L128.564 47.8107V44.4209ZM131.356 47.8468C131.467 48.0391 131.585 48.2098 131.71 48.3588C131.84 48.5031 131.982 48.6161 132.135 48.6978C132.289 48.7748 132.462 48.8132 132.655 48.8132C132.885 48.8132 133.073 48.7507 133.217 48.6257C133.362 48.5007 133.434 48.3396 133.434 48.1425C133.434 47.955 133.388 47.8059 133.297 47.6953C133.205 47.5799 133.078 47.4838 132.914 47.4068C132.756 47.3251 132.571 47.2458 132.359 47.1688C132.234 47.1255 132.095 47.0678 131.941 46.9957C131.787 46.9188 131.64 46.825 131.501 46.7144C131.361 46.599 131.246 46.4596 131.155 46.2961C131.063 46.1278 131.018 45.9259 131.018 45.6903C131.018 45.421 131.087 45.1854 131.227 44.9835C131.366 44.7767 131.554 44.6181 131.789 44.5075C132.03 44.3921 132.301 44.3344 132.604 44.3344C132.902 44.3344 133.162 44.3873 133.383 44.4931C133.604 44.5988 133.789 44.7335 133.938 44.8969C134.092 45.0604 134.213 45.2311 134.299 45.409L133.607 45.7985C133.544 45.6735 133.465 45.5581 133.369 45.4523C133.273 45.3417 133.16 45.2552 133.03 45.1926C132.905 45.1253 132.758 45.0917 132.59 45.0917C132.354 45.0917 132.181 45.147 132.071 45.2576C131.96 45.3633 131.905 45.4884 131.905 45.6326C131.905 45.7624 131.943 45.8802 132.02 45.986C132.102 46.087 132.227 46.1831 132.395 46.2745C132.563 46.3659 132.782 46.4596 133.051 46.5558C133.2 46.6087 133.349 46.676 133.499 46.7577C133.652 46.8395 133.792 46.9428 133.917 47.0678C134.042 47.1881 134.14 47.3299 134.213 47.4934C134.289 47.6569 134.328 47.8492 134.328 48.0704C134.328 48.306 134.282 48.5175 134.191 48.705C134.1 48.8926 133.975 49.0512 133.816 49.1811C133.657 49.3061 133.477 49.4022 133.275 49.4695C133.078 49.5417 132.871 49.5777 132.655 49.5777C132.357 49.5777 132.08 49.52 131.825 49.4046C131.575 49.2844 131.356 49.1258 131.169 48.9286C130.981 48.7315 130.832 48.5175 130.722 48.2867L131.356 47.8468Z" fill="white"/>
<path d="M65.496 39.9557H58.9761L54.2869 33.3716H53.2591V39.9879H47.9918V19.7216L57.7877 19.6894C58.7298 19.6894 59.6184 19.8714 60.4535 20.2354C61.2886 20.5994 62.0166 21.0919 62.6375 21.7129C63.2584 22.3338 63.7509 23.0618 64.1149 23.8969C64.4789 24.7319 64.6609 25.6205 64.6609 26.5626C64.6609 27.9972 64.2648 29.2819 63.4726 30.4168C62.6803 31.5516 61.6526 32.3652 60.3893 32.8577L65.496 39.9557ZM59.3936 26.5305C59.3936 26.038 59.2116 25.6205 58.8476 25.2779C58.505 24.9353 58.0875 24.764 57.595 24.764H53.2591V28.297H57.595C58.0875 28.297 58.505 28.1257 58.8476 27.7831C59.2116 27.4405 59.3936 27.023 59.3936 26.5305Z" fill="white"/>
<path d="M19.6968 31.616C20.7119 30.8264 20.9056 29.3683 20.1318 28.3411L14.898 21.3933C13.6844 19.7821 11.1277 20.4534 10.8621 22.453V22.453C10.7911 22.9872 10.9138 23.5291 11.208 23.9806L13.4272 27.3872C14.0619 28.3614 13.8904 29.653 13.0234 30.4278L10.0194 33.1124C9.59983 33.4873 9.32844 34.0001 9.25435 34.5579L9.24356 34.6392C8.96624 36.7272 11.3604 38.1007 13.023 36.8075L19.6968 31.616Z" fill="url(#paint0_linear_186_211)"/>
<path d="M22.67 31.7276C21.6549 30.938 21.4612 29.4799 22.235 28.4527L27.4688 21.5049C28.6825 19.8937 31.2392 20.565 31.5047 22.5646V22.5646C31.5757 23.0988 31.453 23.6407 31.1588 24.0922L28.9396 27.4988C28.3049 28.473 28.4765 29.7646 29.3434 30.5394L32.3474 33.224C32.767 33.5989 33.0384 34.1117 33.1125 34.6695L33.1233 34.7508C33.4006 36.8387 31.0064 38.2123 29.3439 36.9191L22.67 31.7276Z" fill="url(#paint1_linear_186_211)"/>
<path d="M19.6981 34.4123V34.4123C19.9053 33.2344 21.4154 32.867 22.1405 33.8181L22.8725 34.7782C23.0974 35.0732 23.2311 35.4277 23.257 35.7979L23.9006 44.9958C23.965 45.9161 23.5081 46.7947 22.7178 47.2705L22.6631 47.3034C21.9297 47.7449 21.0193 47.7726 20.2605 47.3763L20.1129 47.2993C19.2355 46.8411 18.719 45.9009 18.8031 44.9146L19.6981 34.4123Z" fill="url(#paint2_linear_186_211)"/>
<circle cx="21.3395" cy="20.7925" r="2.63316" fill="url(#paint3_linear_186_211)"/>
<circle cx="33.9792" cy="27.9022" r="2.63316" transform="rotate(82.7686 33.9792 27.9022)" fill="url(#paint4_linear_186_211)"/>
<circle cx="8.1762" cy="27.9039" r="2.63316" transform="rotate(85.142 8.1762 27.9039)" fill="url(#paint5_linear_186_211)"/>
<defs>
<linearGradient id="paint0_linear_186_211" x1="20.6195" y1="31.3808" x2="10.5564" y2="23.1922" gradientUnits="userSpaceOnUse">
<stop stop-color="#007ED6"/>
<stop offset="1" stop-color="#69C1FF"/>
</linearGradient>
<linearGradient id="paint1_linear_186_211" x1="22.5898" y1="30.69" x2="37.5857" y2="30.4927" gradientUnits="userSpaceOnUse">
<stop stop-color="#F39F18"/>
<stop offset="1" stop-color="#FFBE55"/>
</linearGradient>
<linearGradient id="paint2_linear_186_211" x1="24.9904" y1="35.9921" x2="16.6092" y2="44.5241" gradientUnits="userSpaceOnUse">
<stop stop-color="#0FE55E"/>
<stop offset="1" stop-color="#01772D"/>
</linearGradient>
<linearGradient id="paint3_linear_186_211" x1="21.3395" y1="18.1593" x2="21.3395" y2="23.4256" gradientUnits="userSpaceOnUse">
<stop stop-color="#F62395"/>
<stop offset="1" stop-color="#FF37A3"/>
</linearGradient>
<linearGradient id="paint4_linear_186_211" x1="33.9792" y1="25.269" x2="33.9792" y2="30.5353" gradientUnits="userSpaceOnUse">
<stop stop-color="#F39F18"/>
<stop offset="1" stop-color="#FFB949"/>
</linearGradient>
<linearGradient id="paint5_linear_186_211" x1="8.1762" y1="25.2708" x2="8.1762" y2="30.5371" gradientUnits="userSpaceOnUse">
<stop stop-color="#51B8FF"/>
<stop offset="1" stop-color="#005D9F"/>
</linearGradient>
</defs>
</svg>
